<svg id="Layer_1" data-name="Layer 1" xmlns="http://www.w3.org/2000/svg" viewBox="0 0 184.47 57.47"><defs><style>.cls-1{fill:#231f20;}.cls-2{fill:#0da74e;}</style></defs><title>CFA_Logo_resized</title><path class="cls-1" d="M77.8,16a10.32,10.32,0,0,0-5.06-1.4,7.2,7.2,0,0,0-7.36,7.55c0,4,2.6,7.39,7.15,7.39a8.77,8.77,0,0,0,5.73-2.1l-.15,3A12.33,12.33,0,0,1,72,31.92c-7.55,0-9.75-6-9.75-9.47,0-5.19,4.36-10.32,11.33-10.32a11.2,11.2,0,0,1,4.17.75Z"/><path class="cls-1" d="M82.16,23.7c.21-2.31.91-3.86,2.85-3.86s2.77,1.4,2.69,3.86Zm6.95,4.77a8.4,8.4,0,0,1-3.55,1.06c-3,0-3.24-3.16-3.32-4.1l7.16-.16a16.33,16.33,0,0,0-.16-3.13,4.25,4.25,0,0,0-4.38-3.94c-3.19,0-5.44,2.49-5.44,7,0,3.06,1.09,6.56,5.42,6.56a8.55,8.55,0,0,0,3-.6Z"/><path class="cls-1" d="M96.76,18.67A4.24,4.24,0,0,1,98.83,18a3.52,3.52,0,0,1,3.42,3.55v7.83a4.63,4.63,0,0,0,.49,2.34H99.26a5.14,5.14,0,0,0,.42-2.26V22c0-.47-.47-1.76-2.46-1.76a3.67,3.67,0,0,0-2.42.77v7.73a14.92,14.92,0,0,0,.23,3H91.59a10.32,10.32,0,0,0,.67-4.15V20.33a19.89,19.89,0,0,0-.36-2.18h2.93l0,2.64Z"/><path class="cls-1" d="M112.7,18.48V20.2h-3.45v4.87c0,3.06,0,3.4.13,3.76a1.92,1.92,0,0,0,1.71,1.12,8.15,8.15,0,0,0,1.77-.29l-1.48,1.89a10.29,10.29,0,0,1-2.23.29,2.34,2.34,0,0,1-2.59-2.23c0-.57.07-1,.07-1.89V20.2h-1.76c.39-.47.8-.88,4.38-4.56v2.85Z"/><path class="cls-1" d="M116.72,23.7c.21-2.31.91-3.86,2.85-3.86s2.78,1.4,2.7,3.86Zm7,4.77a8.44,8.44,0,0,1-3.56,1.06c-3,0-3.24-3.16-3.31-4.1l7.15-.16a16.43,16.43,0,0,0-.15-3.13,4.26,4.26,0,0,0-4.39-3.94c-3.19,0-5.44,2.49-5.44,7,0,3.06,1.09,6.56,5.42,6.56a8.52,8.52,0,0,0,3-.6Z"/><path class="cls-1" d="M129.63,18.18A8.38,8.38,0,0,0,129.5,20V21.7c.8-1.55,1.74-3.45,4-3.45a2.36,2.36,0,0,1,1.25.33l-.45,3.26a2.57,2.57,0,0,0-2.07-1,3.61,3.61,0,0,0-2.7,1.19v6.51c0,2,.21,2.41.67,3.19h-4a3.87,3.87,0,0,0,.67-2.6V20.53a6.3,6.3,0,0,0-.44-2.36Z"/><path class="cls-1" d="M149.7,20.22h-3v8.25a5.73,5.73,0,0,0,.72,3.24l-4.15.05a6.55,6.55,0,0,0,.75-3.51v-8l-1.35-.05a16.68,16.68,0,0,0,1.35-1.92v-.8c0-1.42,0-5.32,4.46-5.32a10.42,10.42,0,0,1,2.46.34c-.26,1.29-.34,1.66-.52,2.9a2,2,0,0,0-2-1.32c-1.76,0-1.76,1.87-1.76,2.67v1.71h3Z"/><path class="cls-1" d="M157.69,30c-2.49.21-5.08-1.71-5.08-5.6,0-2.85,1.53-4.57,3.29-4.57,2.41,0,4.15,2.47,4.15,5.21a5.75,5.75,0,0,1-2.36,5m-1.81-12c-2.23.68-6,1.84-6,7.5,0,4.72,3.4,6.45,6,6.45a7.07,7.07,0,0,0,6.61-7.44A6.2,6.2,0,0,0,155.88,18"/><path class="cls-1" d="M168.19,18.18a8.26,8.26,0,0,0-.13,1.87V21.7c.8-1.55,1.74-3.45,4-3.45a2.33,2.33,0,0,1,1.24.33l-.44,3.26a2.58,2.58,0,0,0-2.07-1,3.62,3.62,0,0,0-2.7,1.19v6.51c0,2,.21,2.41.68,3.19h-4a3.85,3.85,0,0,0,.68-2.6V20.53a6.23,6.23,0,0,0-.45-2.36Z"/><path class="cls-1" d="M72,41.28l2.25,5.21H69.56Zm.21-6h-.16L64.57,50.17a19.07,19.07,0,0,1-2.83,4.64h4.75a8.89,8.89,0,0,1,1-3.94l1-2.1h6.82l1.14,2.62a7.85,7.85,0,0,1,.8,3.42l4.62,0a26.14,26.14,0,0,1-3-5.27Z"/><path class="cls-1" d="M90.17,44a3.74,3.74,0,0,0-2.52-1.19,1.84,1.84,0,0,0-2,1.81c0,1,.54,1.4,2.3,2.57,1.4.93,2.33,1.86,2.33,3.76,0,2.31-1.53,3.91-4.44,3.91a11.42,11.42,0,0,1-3.26-.49l.18-3.5c1.24,1.78,1.89,2.51,3,2.51a1.84,1.84,0,0,0,2-1.84c0-1.17-.73-1.63-2.15-2.54A4.76,4.76,0,0,1,83,45.06c0-1.5,1.3-3.81,4.54-3.81a6.27,6.27,0,0,1,2.59.57Z"/><path class="cls-1" d="M99.09,44a3.71,3.71,0,0,0-2.51-1.19,1.84,1.84,0,0,0-2,1.81c0,1,.55,1.4,2.31,2.57,1.4.93,2.34,1.86,2.34,3.76,0,2.31-1.53,3.91-4.44,3.91a11.44,11.44,0,0,1-3.27-.49l.18-3.5c1.24,1.78,1.89,2.51,3,2.51a1.84,1.84,0,0,0,2-1.84c0-1.17-.72-1.63-2.15-2.54A4.77,4.77,0,0,1,92,45.06c0-1.5,1.3-3.81,4.54-3.81a6.22,6.22,0,0,1,2.59.57Z"/><path class="cls-1" d="M103.52,46.75c.21-2.31.91-3.87,2.85-3.87s2.78,1.4,2.7,3.87Zm6.95,4.77a8.38,8.38,0,0,1-3.55,1.07c-3,0-3.24-3.17-3.32-4.1l7.16-.16a16,16,0,0,0-.15-3.14,4.25,4.25,0,0,0-4.38-3.94c-3.2,0-5.45,2.49-5.45,7,0,3.06,1.09,6.56,5.42,6.56a8.53,8.53,0,0,0,3-.59Z"/><path class="cls-1" d="M119.63,44a3.75,3.75,0,0,0-2.52-1.19,1.85,1.85,0,0,0-2,1.81c0,1,.55,1.4,2.31,2.57,1.4.93,2.33,1.86,2.33,3.76,0,2.31-1.53,3.91-4.44,3.91a11.44,11.44,0,0,1-3.27-.49l.18-3.5c1.24,1.78,1.89,2.51,3,2.51a1.84,1.84,0,0,0,2-1.84c0-1.17-.73-1.63-2.15-2.54a4.76,4.76,0,0,1-2.59-3.92c0-1.5,1.29-3.81,4.53-3.81a6.26,6.26,0,0,1,2.6.57Z"/><path class="cls-1" d="M128.55,44A3.74,3.74,0,0,0,126,42.78a1.84,1.84,0,0,0-2,1.81c0,1,.54,1.4,2.31,2.57,1.4.93,2.33,1.86,2.33,3.76,0,2.31-1.53,3.91-4.43,3.91a11.46,11.46,0,0,1-3.27-.49l.18-3.5c1.25,1.78,1.9,2.51,3,2.51a1.83,1.83,0,0,0,2-1.84c0-1.17-.73-1.63-2.15-2.54a4.76,4.76,0,0,1-2.59-3.92c0-1.5,1.29-3.81,4.54-3.81a6.28,6.28,0,0,1,2.6.57Z"/><path class="cls-1" d="M134,41.2v3c.18-.28,1-1.61,1.16-1.86a3.43,3.43,0,0,1,2.57-1.17,3.35,3.35,0,0,1,3.27,3c.15-.28.86-1.63,1-1.9a3.24,3.24,0,0,1,2.62-1.13,3.12,3.12,0,0,1,2.93,1.68,4.2,4.2,0,0,1,.36,2.07v7.88a3.66,3.66,0,0,0,.42,2H145a3.36,3.36,0,0,0,.38-2v-7.7a2,2,0,0,0-2.07-1.94,3,3,0,0,0-2.31,1.4v8a4.13,4.13,0,0,0,.46,2.23h-3.6a3.34,3.34,0,0,0,.51-2.23V45.87A3.07,3.07,0,0,0,138,44a2,2,0,0,0-1.56-.88A3.62,3.62,0,0,0,134,44.52v8a3.39,3.39,0,0,0,.57,2.25h-3.68a3.82,3.82,0,0,0,.54-2.15V43.95a6.05,6.05,0,0,0-.54-2.75Z"/><path class="cls-1" d="M153.77,46.75c.21-2.31.91-3.87,2.86-3.87s2.77,1.4,2.7,3.87Zm7,4.77a8.38,8.38,0,0,1-3.55,1.07c-3,0-3.24-3.17-3.32-4.1l7.16-.16a16.46,16.46,0,0,0-.16-3.14,4.25,4.25,0,0,0-4.38-3.94c-3.19,0-5.45,2.49-5.45,7,0,3.06,1.09,6.56,5.42,6.56a8.49,8.49,0,0,0,3-.59Z"/><path class="cls-1" d="M168.37,41.71a4.26,4.26,0,0,1,2.07-.62,3.51,3.51,0,0,1,3.42,3.55v7.83a4.62,4.62,0,0,0,.49,2.33h-3.47a5.17,5.17,0,0,0,.42-2.25V45.06c0-.47-.47-1.77-2.46-1.77a3.65,3.65,0,0,0-2.41.78V51.8a15,15,0,0,0,.23,3h-3.45a10.2,10.2,0,0,0,.67-4.15V43.38a20.82,20.82,0,0,0-.36-2.18h2.93l0,2.64Z"/><path class="cls-1" d="M184.32,41.53v1.71h-3.45v4.87c0,3.06,0,3.4.13,3.76A1.93,1.93,0,0,0,182.71,53a7.89,7.89,0,0,0,1.76-.29L183,54.6a10.32,10.32,0,0,1-2.23.29,2.34,2.34,0,0,1-2.59-2.23c0-.57.07-1,.07-1.89V43.25h-1.76c.39-.46.8-.88,4.38-4.56v2.85Z"/><path class="cls-1" d="M28,8.17a19.78,19.78,0,0,0-5.88,38.67,21.68,21.68,0,0,1-1.3-6,14.78,14.78,0,0,1,.94-26.33A14.66,14.66,0,0,1,28,13.16a14.84,14.84,0,0,1,10.05,4l4.8-2.24A19.88,19.88,0,0,0,28,8.17Z"/><path class="cls-1" d="M23.89,50.58a23.72,23.72,0,0,1-3.77-1A23,23,0,0,1,6.39,20.11,22.94,22.94,0,0,1,35.83,6.38a22.8,22.8,0,0,1,10,7.1l4.63-2.16A27.94,27.94,0,0,0,1.7,18.4,28,28,0,0,0,28,55.94l.45,0A21.85,21.85,0,0,1,23.89,50.58Z"/><path class="cls-2" d="M34.84,55.65,36.55,51,26.85,30.18a18.2,18.2,0,0,0,8,25.47Z"/><path class="cls-2" d="M41.49,47.79l19.46-9.08v0a18.16,18.16,0,0,0-1.7-7.25l-.84-1.79L46,35.51Z"/><path class="cls-2" d="M60.6,42.81,39.76,52.53l-1.58,4.34A18.2,18.2,0,0,0,60.6,42.81Z"/><path class="cls-2" d="M38.27,46.21l4.47-12.27L37,21.71l-2,1a18.17,18.17,0,0,0-5.75,4.22Z"/><polygon class="cls-2" points="44.46 29.2 49.27 16 40.27 20.2 44.46 29.2"/><polygon class="cls-2" points="56.92 26.47 52.61 17.23 47.68 30.77 56.92 26.47"/></svg>