<?xml version="1.0" encoding="UTF-8" standalone="no"?>
<svg
   xmlns:dc="http://purl.org/dc/elements/1.1/"
   xmlns:cc="http://creativecommons.org/ns#"
   xmlns:rdf="http://www.w3.org/1999/02/22-rdf-syntax-ns#"
   xmlns:svg="http://www.w3.org/2000/svg"
   xmlns="http://www.w3.org/2000/svg"
   xmlns:sodipodi="http://sodipodi.sourceforge.net/DTD/sodipodi-0.dtd"
   xmlns:inkscape="http://www.inkscape.org/namespaces/inkscape"
   id="Layer_1"
   data-name="Layer 1"
   viewBox="0 0 61.470001 59.47"
   version="1.1"
   sodipodi:docname="CFA_Logo_alpha_05.svg"
   inkscape:version="1.0.2 (e86c8708, 2021-01-15)"
   width="61.470001"
   height="59.470001">
  <metadata
     id="metadata166">
    <rdf:RDF>
      <cc:Work
         rdf:about="">
        <dc:format>image/svg+xml</dc:format>
        <dc:type
           rdf:resource="http://purl.org/dc/dcmitype/StillImage" />
        <dc:title>CFA_Logo_resized</dc:title>
      </cc:Work>
    </rdf:RDF>
  </metadata>
  <sodipodi:namedview
     pagecolor="#ffffff"
     bordercolor="#666666"
     borderopacity="1"
     objecttolerance="10"
     gridtolerance="10"
     guidetolerance="10"
     inkscape:pageopacity="0"
     inkscape:pageshadow="2"
     inkscape:window-width="1474"
     inkscape:window-height="786"
     id="namedview164"
     showgrid="false"
     inkscape:zoom="5.7028243"
     inkscape:cx="97.495552"
     inkscape:cy="28.735001"
     inkscape:window-x="0"
     inkscape:window-y="25"
     inkscape:window-maximized="0"
     inkscape:current-layer="Layer_1" />
  <defs
     id="defs105">
    <style
       id="style103">.cls-1{fill:#231f20;}.cls-2{fill:#0da74e;}</style>
  </defs>
  <title
     id="title107">CFA_Logo_resized</title>
  <path
     class="cls-1"
     d="m 28.350703,9.2221103 a 19.78,19.78 0 0 0 -5.88,38.6699997 21.68,21.68 0 0 1 -1.3,-6 14.78,14.78 0 0 1 0.94,-26.33 14.66,14.66 0 0 1 6.24,-1.35 14.84,14.84 0 0 1 10.05,4 l 4.8,-2.24 a 19.88,19.88 0 0 0 -14.85,-6.7499997 z"
     id="path147"
     style="opacity:0.05" />
  <path
     class="cls-1"
     d="m 24.240703,51.63211 a 23.72,23.72 0 0 1 -3.77,-1 23,23 0 0 1 -13.7299996,-29.47 22.94,22.94 0 0 1 29.4399996,-13.7299997 22.8,22.8 0 0 1 10,7.0999997 l 4.63,-2.16 a 27.94,27.94 0 0 0 -48.7599996,7.08 28,28 0 0 0 26.2999996,37.54 h 0.45 a 21.85,21.85 0 0 1 -4.56,-5.36 z"
     id="path149"
     style="opacity:0.05" />
  <path
     class="cls-2"
     d="m 35.190703,56.70211 1.71,-4.65 -9.7,-20.82 a 18.2,18.2 0 0 0 8,25.47 z"
     id="path151"
     style="opacity:0.05" />
  <path
     class="cls-2"
     d="m 41.840703,48.84211 19.46,-9.08 v 0 a 18.16,18.16 0 0 0 -1.7,-7.25 l -0.84,-1.79 -12.41,5.84 z"
     id="path153"
     style="opacity:0.05" />
  <path
     class="cls-2"
     d="m 60.950703,43.86211 -20.84,9.72 -1.58,4.34 a 18.2,18.2 0 0 0 22.42,-14.06 z"
     id="path155"
     style="opacity:0.05" />
  <path
     class="cls-2"
     d="m 38.620703,47.26211 4.47,-12.27 -5.74,-12.23 -2,1 a 18.17,18.17 0 0 0 -5.75,4.22 z"
     id="path157"
     style="opacity:0.05" />
  <polygon
     class="cls-2"
     points="40.27,20.2 44.46,29.2 49.27,16 "
     id="polygon159"
     transform="translate(0.35070342,1.0521103)"
     style="opacity:0.05" />
  <polygon
     class="cls-2"
     points="47.68,30.77 56.92,26.47 52.61,17.23 "
     id="polygon161"
     transform="translate(0.35070342,1.0521103)"
     style="opacity:0.05" />
</svg>
