<?xml version="1.0" encoding="UTF-8" standalone="no"?>
<svg
   xmlns:dc="http://purl.org/dc/elements/1.1/"
   xmlns:cc="http://creativecommons.org/ns#"
   xmlns:rdf="http://www.w3.org/1999/02/22-rdf-syntax-ns#"
   xmlns:svg="http://www.w3.org/2000/svg"
   xmlns="http://www.w3.org/2000/svg"
   xmlns:sodipodi="http://sodipodi.sourceforge.net/DTD/sodipodi-0.dtd"
   xmlns:inkscape="http://www.inkscape.org/namespaces/inkscape"
   width="100%"
   height="100%"
   viewBox="0 0 612 792"
   version="1.1"
   xml:space="preserve"
   style="fill-rule:evenodd;clip-rule:evenodd;stroke-linejoin:round;stroke-miterlimit:2;"
   id="svg98"
   sodipodi:docname="footer-bar.svg"
   inkscape:version="1.0.2 (e86c8708, 2021-01-15)"><metadata
   id="metadata104"><rdf:RDF><cc:Work
       rdf:about=""><dc:format>image/svg+xml</dc:format><dc:type
         rdf:resource="http://purl.org/dc/dcmitype/StillImage" /><dc:title></dc:title></cc:Work></rdf:RDF></metadata><defs
   id="defs102"><rect
     x="312.34541"
     y="636.93966"
     width="182.71186"
     height="59.202725"
     id="rect901" /><rect
     x="310.30394"
     y="636.93966"
     width="123.50913"
     height="57.161251"
     id="rect895" /><rect
     x="301.11731"
     y="575.69546"
     width="190.87775"
     height="63.285671"
     id="rect530" /><path
     d="M0.58,37.3443771 C0.738991206,26.8599431 6.75286605,16.8593498 16.876,12.139 L41.098,0.844 L42.459,0.209 L54,24.9525636 L54,50.4343109 C51.2464274,55.9064587 46.705834,60.5260804 40.736,63.31 C40.2044261,63.5579623 39.668981,63.7878779 39.1303593,64 L18.5188994,64 L18.5188994,64 C11.9968822,61.4481772 6.40539709,56.4874219 3.219,49.655 C1.48945131,45.9455559 0.638420054,42.0476012 0.58,38.197178 L0.58,37.3443771 L0.58,37.3443771 Z"
     id="path-1" /><polygon
     id="path-3"
     points="0.576766264 64 54 64 54 0.209 0.576766264 0.209 0.576766264 64" /><polygon
     id="path-5"
     points="0.249010758 65 23.682 0.626 0.249010758 65" /><polygon
     id="path-7"
     points="48.527 1.42108547e-14 48.527 64.374 0 64.374 1.42108547e-14 0 48.527 0" /><path
     d="M0.58,37.3443771 C0.738991206,26.8599431 6.75286605,16.8593498 16.876,12.139 L41.098,0.844 L42.459,0.209 L54,24.9525636 L54,50.4343109 C51.2464274,55.9064587 46.705834,60.5260804 40.736,63.31 C40.2044261,63.5579623 39.668981,63.7878779 39.1303593,64 L18.5188994,64 L18.5188994,64 C11.9968822,61.4481772 6.40539709,56.4874219 3.219,49.655 C1.48945131,45.9455559 0.638420054,42.0476012 0.58,38.197178 L0.58,37.3443771 L0.58,37.3443771 Z"
     id="path-1-7" /><polygon
     id="path-3-9"
     points="0.576766264 64 54 64 54 0.209 0.576766264 0.209 0.576766264 64" /><polygon
     id="path-5-3"
     points="0.249010758 65 23.682 0.626 0.249010758 65" /><polygon
     id="path-7-2"
     points="48.527 1.42108547e-14 48.527 64.374 0 64.374 1.42108547e-14 0 48.527 0" /><style
     id="style664">.cls-1{fill:#231f20;}.cls-2{fill:#0da74e;}</style><style
     id="style1017">.cls-1{fill:#231f20;}.cls-2{fill:#0da74e;}</style></defs><sodipodi:namedview
   pagecolor="#ffffff"
   bordercolor="#666666"
   borderopacity="1"
   objecttolerance="10"
   gridtolerance="10"
   guidetolerance="10"
   inkscape:pageopacity="0"
   inkscape:pageshadow="2"
   inkscape:window-width="1437"
   inkscape:window-height="949"
   id="namedview100"
   showgrid="false"
   inkscape:zoom="2.0130081"
   inkscape:cx="307.5"
   inkscape:cy="754.80119"
   inkscape:window-x="0"
   inkscape:window-y="23"
   inkscape:window-maximized="0"
   inkscape:current-layer="svg98" />
    
    
    
    <rect
   x="51.2"
   y="731.77"
   width="19.86"
   height="18.66"
   style="fill:none;fill-rule:nonzero;"
   id="rect50" />
    <rect
   x="28.16"
   y="762.05"
   width="60.22"
   height="15.98"
   style="fill:none;fill-rule:nonzero;"
   id="rect52" />
    
    <rect
   x="111.08"
   y="762.05"
   width="35"
   height="16.18"
   style="fill:none;fill-rule:nonzero;"
   id="rect58" />
    
    <rect
   x="156.92"
   y="763.48"
   width="85.09"
   height="19.93"
   style="fill:none;fill-rule:nonzero;"
   id="rect64" />
    
    
    
<rect
   style="fill:#e6e6e6;stroke-width:0.972959"
   id="rect317"
   width="615"
   height="75.731865"
   x="0"
   y="750.49408" /><path
   style="fill:#ffffff;stroke-width:1.02074"
   d="m 340.45209,606.27175 c 0.0113,-2.24562 0.22036,-3.0441 0.46451,-1.77439 0.24416,1.2697 0.23489,3.10703 -0.0206,4.08294 -0.25548,0.97592 -0.45524,-0.0629 -0.44391,-2.30855 z"
   id="path889" /><text
   xml:space="preserve"
   id="text893"
   style="font-style:normal;font-weight:normal;font-size:10.66670000000000051px;line-height:1.25;font-family:sans-serif;white-space:pre;shape-inside:url(#rect895);fill:#000000;fill-opacity:1;stroke:none;"
   transform="matrix(1.6139438,0,0,1,-190.59278,0)" /><g
   id="g1110"
   transform="matrix(0.52662687,0,0,0.4498766,49.012138,759.54661)"><path
     class="cls-1"
     d="m 77.8,16 a 10.32,10.32 0 0 0 -5.06,-1.4 7.2,7.2 0 0 0 -7.36,7.55 c 0,4 2.6,7.39 7.15,7.39 a 8.77,8.77 0 0 0 5.73,-2.1 l -0.15,3 A 12.33,12.33 0 0 1 72,31.92 c -7.55,0 -9.75,-6 -9.75,-9.47 0,-5.19 4.36,-10.32 11.33,-10.32 a 11.2,11.2 0 0 1 4.17,0.75 z"
     id="path1023" /><path
     class="cls-1"
     d="m 82.16,23.7 c 0.21,-2.31 0.91,-3.86 2.85,-3.86 1.94,0 2.77,1.4 2.69,3.86 z m 6.95,4.77 a 8.4,8.4 0 0 1 -3.55,1.06 c -3,0 -3.24,-3.16 -3.32,-4.1 L 89.4,25.27 A 16.33,16.33 0 0 0 89.24,22.14 4.25,4.25 0 0 0 84.86,18.2 c -3.19,0 -5.44,2.49 -5.44,7 0,3.06 1.09,6.56 5.42,6.56 a 8.55,8.55 0 0 0 3,-0.6 z"
     id="path1025" /><path
     class="cls-1"
     d="m 96.76,18.67 a 4.24,4.24 0 0 1 2.07,-0.67 3.52,3.52 0 0 1 3.42,3.55 v 7.83 a 4.63,4.63 0 0 0 0.49,2.34 h -3.48 a 5.14,5.14 0 0 0 0.42,-2.26 V 22 c 0,-0.47 -0.47,-1.76 -2.46,-1.76 a 3.67,3.67 0 0 0 -2.42,0.77 v 7.73 a 14.92,14.92 0 0 0 0.23,3 h -3.44 a 10.32,10.32 0 0 0 0.67,-4.15 V 20.33 A 19.89,19.89 0 0 0 91.9,18.15 h 2.93 v 2.64 z"
     id="path1027" /><path
     class="cls-1"
     d="m 112.7,18.48 v 1.72 h -3.45 v 4.87 c 0,3.06 0,3.4 0.13,3.76 a 1.92,1.92 0 0 0 1.71,1.12 8.15,8.15 0 0 0 1.77,-0.29 l -1.48,1.89 a 10.29,10.29 0 0 1 -2.23,0.29 2.34,2.34 0 0 1 -2.59,-2.23 c 0,-0.57 0.07,-1 0.07,-1.89 V 20.2 h -1.76 c 0.39,-0.47 0.8,-0.88 4.38,-4.56 v 2.85 z"
     id="path1029" /><path
     class="cls-1"
     d="m 116.72,23.7 c 0.21,-2.31 0.91,-3.86 2.85,-3.86 1.94,0 2.78,1.4 2.7,3.86 z m 7,4.77 a 8.44,8.44 0 0 1 -3.56,1.06 c -3,0 -3.24,-3.16 -3.31,-4.1 L 124,25.27 a 16.43,16.43 0 0 0 -0.15,-3.13 4.26,4.26 0 0 0 -4.39,-3.94 c -3.19,0 -5.44,2.49 -5.44,7 0,3.06 1.09,6.56 5.42,6.56 a 8.52,8.52 0 0 0 3,-0.6 z"
     id="path1031" /><path
     class="cls-1"
     d="M 129.63,18.18 A 8.38,8.38 0 0 0 129.5,20 v 1.7 c 0.8,-1.55 1.74,-3.45 4,-3.45 a 2.36,2.36 0 0 1 1.25,0.33 l -0.45,3.26 a 2.57,2.57 0 0 0 -2.07,-1 3.61,3.61 0 0 0 -2.7,1.19 v 6.51 c 0,2 0.21,2.41 0.67,3.19 h -4 a 3.87,3.87 0 0 0 0.67,-2.6 v -8.6 a 6.3,6.3 0 0 0 -0.44,-2.36 z"
     id="path1033" /><path
     class="cls-1"
     d="m 149.7,20.22 h -3 v 8.25 a 5.73,5.73 0 0 0 0.72,3.24 l -4.15,0.05 a 6.55,6.55 0 0 0 0.75,-3.51 v -8 l -1.35,-0.05 a 16.68,16.68 0 0 0 1.35,-1.92 v -0.8 c 0,-1.42 0,-5.32 4.46,-5.32 a 10.42,10.42 0 0 1 2.46,0.34 c -0.26,1.29 -0.34,1.66 -0.52,2.9 a 2,2 0 0 0 -2,-1.32 c -1.76,0 -1.76,1.87 -1.76,2.67 v 1.71 h 3 z"
     id="path1035" /><path
     class="cls-1"
     d="m 157.69,30 c -2.49,0.21 -5.08,-1.71 -5.08,-5.6 0,-2.85 1.53,-4.57 3.29,-4.57 2.41,0 4.15,2.47 4.15,5.21 a 5.75,5.75 0 0 1 -2.36,5 m -1.81,-12 c -2.23,0.68 -6,1.84 -6,7.5 0,4.72 3.4,6.45 6,6.45 a 7.07,7.07 0 0 0 6.61,-7.44 6.2,6.2 0 0 0 -6.61,-6.55"
     id="path1037" /><path
     class="cls-1"
     d="m 168.19,18.18 a 8.26,8.26 0 0 0 -0.13,1.87 v 1.65 c 0.8,-1.55 1.74,-3.45 4,-3.45 a 2.33,2.33 0 0 1 1.24,0.33 l -0.44,3.26 a 2.58,2.58 0 0 0 -2.07,-1 3.62,3.62 0 0 0 -2.7,1.19 v 6.51 c 0,2 0.21,2.41 0.68,3.19 h -4 a 3.85,3.85 0 0 0 0.68,-2.6 v -8.6 A 6.23,6.23 0 0 0 165,18.17 Z"
     id="path1039" /><path
     class="cls-1"
     d="m 72,41.28 2.25,5.21 h -4.69 z m 0.21,-6 h -0.16 l -7.48,14.89 a 19.07,19.07 0 0 1 -2.83,4.64 h 4.75 a 8.89,8.89 0 0 1 1,-3.94 l 1,-2.1 h 6.82 l 1.14,2.62 a 7.85,7.85 0 0 1 0.8,3.42 h 4.62 a 26.14,26.14 0 0 1 -3,-5.27 z"
     id="path1041" /><path
     class="cls-1"
     d="m 90.17,44 a 3.74,3.74 0 0 0 -2.52,-1.19 1.84,1.84 0 0 0 -2,1.81 c 0,1 0.54,1.4 2.3,2.57 1.4,0.93 2.33,1.86 2.33,3.76 0,2.31 -1.53,3.91 -4.44,3.91 a 11.42,11.42 0 0 1 -3.26,-0.49 l 0.18,-3.5 c 1.24,1.78 1.89,2.51 3,2.51 a 1.84,1.84 0 0 0 2,-1.84 c 0,-1.17 -0.73,-1.63 -2.15,-2.54 A 4.76,4.76 0 0 1 83,45.06 c 0,-1.5 1.3,-3.81 4.54,-3.81 a 6.27,6.27 0 0 1 2.59,0.57 z"
     id="path1043" /><path
     class="cls-1"
     d="m 99.09,44 a 3.71,3.71 0 0 0 -2.51,-1.19 1.84,1.84 0 0 0 -2,1.81 c 0,1 0.55,1.4 2.31,2.57 1.4,0.93 2.34,1.86 2.34,3.76 0,2.31 -1.53,3.91 -4.44,3.91 a 11.44,11.44 0 0 1 -3.27,-0.49 l 0.18,-3.5 c 1.24,1.78 1.89,2.51 3,2.51 a 1.84,1.84 0 0 0 2,-1.84 C 96.7,50.37 95.98,49.91 94.55,49 A 4.77,4.77 0 0 1 92,45.06 c 0,-1.5 1.3,-3.81 4.54,-3.81 a 6.22,6.22 0 0 1 2.59,0.57 z"
     id="path1045" /><path
     class="cls-1"
     d="m 103.52,46.75 c 0.21,-2.31 0.91,-3.87 2.85,-3.87 1.94,0 2.78,1.4 2.7,3.87 z m 6.95,4.77 a 8.38,8.38 0 0 1 -3.55,1.07 c -3,0 -3.24,-3.17 -3.32,-4.1 l 7.16,-0.16 a 16,16 0 0 0 -0.15,-3.14 4.25,4.25 0 0 0 -4.38,-3.94 c -3.2,0 -5.45,2.49 -5.45,7 0,3.06 1.09,6.56 5.42,6.56 a 8.53,8.53 0 0 0 3,-0.59 z"
     id="path1047" /><path
     class="cls-1"
     d="m 119.63,44 a 3.75,3.75 0 0 0 -2.52,-1.19 1.85,1.85 0 0 0 -2,1.81 c 0,1 0.55,1.4 2.31,2.57 1.4,0.93 2.33,1.86 2.33,3.76 0,2.31 -1.53,3.91 -4.44,3.91 a 11.44,11.44 0 0 1 -3.27,-0.49 l 0.18,-3.5 c 1.24,1.78 1.89,2.51 3,2.51 a 1.84,1.84 0 0 0 2,-1.84 c 0,-1.17 -0.73,-1.63 -2.15,-2.54 a 4.76,4.76 0 0 1 -2.59,-3.92 c 0,-1.5 1.29,-3.81 4.53,-3.81 a 6.26,6.26 0 0 1 2.6,0.57 z"
     id="path1049" /><path
     class="cls-1"
     d="m 128.55,44 a 3.74,3.74 0 0 0 -2.55,-1.22 1.84,1.84 0 0 0 -2,1.81 c 0,1 0.54,1.4 2.31,2.57 1.4,0.93 2.33,1.86 2.33,3.76 0,2.31 -1.53,3.91 -4.43,3.91 a 11.46,11.46 0 0 1 -3.27,-0.49 l 0.18,-3.5 c 1.25,1.78 1.9,2.51 3,2.51 a 1.83,1.83 0 0 0 2,-1.84 c 0,-1.17 -0.73,-1.63 -2.15,-2.54 a 4.76,4.76 0 0 1 -2.59,-3.92 c 0,-1.5 1.29,-3.81 4.54,-3.81 a 6.28,6.28 0 0 1 2.6,0.57 z"
     id="path1051" /><path
     class="cls-1"
     d="m 134,41.2 v 3 c 0.18,-0.28 1,-1.61 1.16,-1.86 a 3.43,3.43 0 0 1 2.57,-1.17 3.35,3.35 0 0 1 3.27,3 c 0.15,-0.28 0.86,-1.63 1,-1.9 a 3.24,3.24 0 0 1 2.62,-1.13 3.12,3.12 0 0 1 2.93,1.68 4.2,4.2 0 0 1 0.36,2.07 v 7.88 a 3.66,3.66 0 0 0 0.42,2 H 145 a 3.36,3.36 0 0 0 0.38,-2 v -7.7 a 2,2 0 0 0 -2.07,-1.94 3,3 0 0 0 -2.31,1.4 v 8 a 4.13,4.13 0 0 0 0.46,2.23 h -3.6 a 3.34,3.34 0 0 0 0.51,-2.23 V 45.87 A 3.07,3.07 0 0 0 138,44 2,2 0 0 0 136.44,43.12 3.62,3.62 0 0 0 134,44.52 v 8 a 3.39,3.39 0 0 0 0.57,2.25 h -3.68 a 3.82,3.82 0 0 0 0.54,-2.15 v -8.67 a 6.05,6.05 0 0 0 -0.54,-2.75 z"
     id="path1053" /><path
     class="cls-1"
     d="m 153.77,46.75 c 0.21,-2.31 0.91,-3.87 2.86,-3.87 1.95,0 2.77,1.4 2.7,3.87 z m 7,4.77 a 8.38,8.38 0 0 1 -3.55,1.07 c -3,0 -3.24,-3.17 -3.32,-4.1 l 7.16,-0.16 a 16.46,16.46 0 0 0 -0.16,-3.14 4.25,4.25 0 0 0 -4.38,-3.94 c -3.19,0 -5.45,2.49 -5.45,7 0,3.06 1.09,6.56 5.42,6.56 a 8.49,8.49 0 0 0 3,-0.59 z"
     id="path1055" /><path
     class="cls-1"
     d="m 168.37,41.71 a 4.26,4.26 0 0 1 2.07,-0.62 3.51,3.51 0 0 1 3.42,3.55 v 7.83 a 4.62,4.62 0 0 0 0.49,2.33 h -3.47 a 5.17,5.17 0 0 0 0.42,-2.25 v -7.49 c 0,-0.47 -0.47,-1.77 -2.46,-1.77 a 3.65,3.65 0 0 0 -2.41,0.78 v 7.73 a 15,15 0 0 0 0.23,3 h -3.45 a 10.2,10.2 0 0 0 0.67,-4.15 v -7.27 a 20.82,20.82 0 0 0 -0.36,-2.18 h 2.93 v 2.64 z"
     id="path1057" /><path
     class="cls-1"
     d="m 184.32,41.53 v 1.71 h -3.45 v 4.87 c 0,3.06 0,3.4 0.13,3.76 a 1.93,1.93 0 0 0 1.71,1.13 7.89,7.89 0 0 0 1.76,-0.29 L 183,54.6 a 10.32,10.32 0 0 1 -2.23,0.29 2.34,2.34 0 0 1 -2.59,-2.23 c 0,-0.57 0.07,-1 0.07,-1.89 v -7.52 h -1.76 c 0.39,-0.46 0.8,-0.88 4.38,-4.56 v 2.85 z"
     id="path1059" /><path
     class="cls-1"
     d="m 28,8.17 a 19.78,19.78 0 0 0 -5.88,38.67 21.68,21.68 0 0 1 -1.3,-6 14.78,14.78 0 0 1 0.94,-26.33 14.66,14.66 0 0 1 6.24,-1.35 14.84,14.84 0 0 1 10.05,4 l 4.8,-2.24 A 19.88,19.88 0 0 0 28,8.17 Z"
     id="path1061" /><path
     class="cls-1"
     d="m 23.89,50.58 a 23.72,23.72 0 0 1 -3.77,-1 A 23,23 0 0 1 6.39,20.11 22.94,22.94 0 0 1 35.83,6.38 a 22.8,22.8 0 0 1 10,7.1 l 4.63,-2.16 A 27.94,27.94 0 0 0 1.7,18.4 28,28 0 0 0 28,55.94 h 0.45 a 21.85,21.85 0 0 1 -4.56,-5.36 z"
     id="path1063" /><path
     class="cls-2"
     d="M 34.84,55.65 36.55,51 26.85,30.18 a 18.2,18.2 0 0 0 8,25.47 z"
     id="path1065" /><path
     class="cls-2"
     d="m 41.49,47.79 19.46,-9.08 v 0 a 18.16,18.16 0 0 0 -1.7,-7.25 L 58.41,29.67 46,35.51 Z"
     id="path1067" /><path
     class="cls-2"
     d="m 60.6,42.81 -20.84,9.72 -1.58,4.34 A 18.2,18.2 0 0 0 60.6,42.81 Z"
     id="path1069" /><path
     class="cls-2"
     d="M 38.27,46.21 42.74,33.94 37,21.71 l -2,1 a 18.17,18.17 0 0 0 -5.75,4.22 z"
     id="path1071" /><polygon
     class="cls-2"
     points="49.27,16 40.27,20.2 44.46,29.2 "
     id="polygon1073" /><polygon
     class="cls-2"
     points="52.61,17.23 47.68,30.77 56.92,26.47 "
     id="polygon1075" /></g></svg>
