<?xml version="1.0" encoding="UTF-8" standalone="no"?>
<svg
   xmlns:osb="http://www.openswatchbook.org/uri/2009/osb"
   xmlns:dc="http://purl.org/dc/elements/1.1/"
   xmlns:cc="http://creativecommons.org/ns#"
   xmlns:rdf="http://www.w3.org/1999/02/22-rdf-syntax-ns#"
   xmlns:svg="http://www.w3.org/2000/svg"
   xmlns="http://www.w3.org/2000/svg"
   xmlns:xlink="http://www.w3.org/1999/xlink"
   xmlns:sodipodi="http://sodipodi.sourceforge.net/DTD/sodipodi-0.dtd"
   xmlns:inkscape="http://www.inkscape.org/namespaces/inkscape"
   width="100%"
   height="100%"
   viewBox="0 0 612 792"
   version="1.1"
   xml:space="preserve"
   style="fill-rule:evenodd;clip-rule:evenodd;stroke-linejoin:round;stroke-miterlimit:2;"
   id="svg98"
   sodipodi:docname="nciea-appendix-cover.svg"
   inkscape:version="1.0.2 (e86c8708, 2021-01-15)"><metadata
   id="metadata104"><rdf:RDF><cc:Work
       rdf:about=""><dc:format>image/svg+xml</dc:format><dc:type
         rdf:resource="http://purl.org/dc/dcmitype/StillImage" /><dc:title></dc:title></cc:Work></rdf:RDF></metadata><defs
   id="defs102"><linearGradient
     id="linearGradient3124"
     osb:paint="solid"><stop
       style="stop-color:#ffffff;stop-opacity:1;"
       offset="0"
       id="stop3122" /></linearGradient><rect
     x="312.34541"
     y="636.93966"
     width="182.71186"
     height="59.202725"
     id="rect901" /><rect
     x="310.30394"
     y="636.93966"
     width="123.50913"
     height="57.161251"
     id="rect895" /><rect
     x="301.11731"
     y="575.69546"
     width="190.87775"
     height="63.285671"
     id="rect530" /><path
     d="M0.58,37.3443771 C0.738991206,26.8599431 6.75286605,16.8593498 16.876,12.139 L41.098,0.844 L42.459,0.209 L54,24.9525636 L54,50.4343109 C51.2464274,55.9064587 46.705834,60.5260804 40.736,63.31 C40.2044261,63.5579623 39.668981,63.7878779 39.1303593,64 L18.5188994,64 L18.5188994,64 C11.9968822,61.4481772 6.40539709,56.4874219 3.219,49.655 C1.48945131,45.9455559 0.638420054,42.0476012 0.58,38.197178 L0.58,37.3443771 L0.58,37.3443771 Z"
     id="path-1" /><polygon
     id="path-3"
     points="0.576766264 64 54 64 54 0.209 0.576766264 0.209 0.576766264 64" /><polygon
     id="path-5"
     points="0.249010758 65 23.682 0.626 0.249010758 65" /><polygon
     id="path-7"
     points="48.527 1.42108547e-14 48.527 64.374 0 64.374 1.42108547e-14 0 48.527 0" /><path
     d="M0.58,37.3443771 C0.738991206,26.8599431 6.75286605,16.8593498 16.876,12.139 L41.098,0.844 L42.459,0.209 L54,24.9525636 L54,50.4343109 C51.2464274,55.9064587 46.705834,60.5260804 40.736,63.31 C40.2044261,63.5579623 39.668981,63.7878779 39.1303593,64 L18.5188994,64 L18.5188994,64 C11.9968822,61.4481772 6.40539709,56.4874219 3.219,49.655 C1.48945131,45.9455559 0.638420054,42.0476012 0.58,38.197178 L0.58,37.3443771 L0.58,37.3443771 Z"
     id="path-1-7" /><polygon
     id="path-3-9"
     points="0.576766264 64 54 64 54 0.209 0.576766264 0.209 0.576766264 64" /><polygon
     id="path-5-3"
     points="0.249010758 65 23.682 0.626 0.249010758 65" /><polygon
     id="path-7-2"
     points="48.527 1.42108547e-14 48.527 64.374 0 64.374 1.42108547e-14 0 48.527 0" /><style
     id="style664">.cls-1{fill:#231f20;}.cls-2{fill:#0da74e;}</style><linearGradient
     inkscape:collect="always"
     xlink:href="#linearGradient3124"
     id="linearGradient3126"
     x1="26.527922"
     y1="744.56224"
     x2="122.04625"
     y2="744.56224"
     gradientUnits="userSpaceOnUse" /><path
     d="M41.098,0.844 L16.876,12.139 C2.769,18.717 -3.358,35.549 3.219,49.655 C9.798,63.762 26.63,69.89 40.736,63.31 C54.844,56.731 60.97,39.9 54.392,25.793 L42.459,0.209 L41.098,0.844 Z"
     id="path-1-4" /><path
     d="M24.682,0.626 L0.624,66.717 L24.682,0.626 Z"
     id="path-3-2" /></defs><sodipodi:namedview
   pagecolor="#ffffff"
   bordercolor="#666666"
   borderopacity="1"
   objecttolerance="10"
   gridtolerance="10"
   guidetolerance="10"
   inkscape:pageopacity="0"
   inkscape:pageshadow="2"
   inkscape:window-width="1437"
   inkscape:window-height="949"
   id="namedview100"
   showgrid="false"
   inkscape:zoom="0.98863636"
   inkscape:cx="306"
   inkscape:cy="396"
   inkscape:window-x="452"
   inkscape:window-y="23"
   inkscape:window-maximized="0"
   inkscape:current-layer="svg98"
   inkscape:document-rotation="0" />
    
    
    
    <rect
   x="51.2"
   y="731.77"
   width="19.86"
   height="18.66"
   style="fill:none;fill-rule:nonzero;"
   id="rect50" />
    <rect
   x="28.16"
   y="762.05"
   width="60.22"
   height="15.98"
   style="fill:none;fill-rule:nonzero;"
   id="rect52" />
    
    <rect
   x="111.08"
   y="762.05"
   width="35"
   height="16.18"
   style="fill:none;fill-rule:nonzero;"
   id="rect58" />
    
    <rect
   x="156.92"
   y="763.48"
   width="85.09"
   height="19.93"
   style="fill:none;fill-rule:nonzero;"
   id="rect64" />
    
    
    
<path
   style="fill:#ffffff;stroke-width:1.02074"
   d="m 340.45209,606.27175 c 0.0113,-2.24562 0.22036,-3.0441 0.46451,-1.77439 0.24416,1.2697 0.23489,3.10703 -0.0206,4.08294 -0.25548,0.97592 -0.45524,-0.0629 -0.44391,-2.30855 z"
   id="path889" /><text
   xml:space="preserve"
   id="text893"
   style="font-style:normal;font-weight:normal;font-size:10.66670000000000051px;line-height:1.25;font-family:sans-serif;white-space:pre;shape-inside:url(#rect895);fill:#000000;fill-opacity:1;stroke:none;"
   transform="matrix(1.6139438,0,0,1,-190.59278,0)" /><path
   style="fill:#ffffff;stroke:#ffffff;stroke-width:0;stroke-linecap:butt;stroke-linejoin:miter;stroke-miterlimit:2;stroke-dasharray:none;stroke-opacity:1"
   d="m 141.84321,436.7405 -43.109214,17.41935 43.109214,2.04933 z"
   id="path2523" /><path
   style="fill:url(#linearGradient3126);stroke:#000000;stroke-width:0;stroke-linecap:butt;stroke-linejoin:miter;stroke-opacity:1;stroke-miterlimit:2;stroke-dasharray:none;fill-opacity:1"
   d="m 26.794983,740.11125 95.251267,-0.53412 -0.17804,9.52513 -95.340287,0.4451 z"
   id="path3116" /><g
   id="CFA_Logo"
   transform="matrix(6.9588733,-0.04459869,0,6.726361,30.271923,147.40325)"
   style="opacity:0.25;fill:none;fill-rule:evenodd;stroke:none;stroke-width:1"><g
     id="Group-3"
     transform="translate(0,2)"
     stroke="#000000"><path
       d="m 58.127997,25.718 c -5.661,-12.142 -20.092,-17.394996 -32.232,-11.734 -12.141,5.662 -17.392997,20.093 -11.732,32.234 5.661,12.139 20.093,17.392 32.233,11.731 12.14,-5.661 17.392,-20.092 11.731,-32.231 z m 11.58,22.463 c 6.746,-18.534 -2.811,-39.029996 -21.346,-45.775996 C 29.827997,-4.338996 9.333,5.215004 2.587,23.75 c -6.746,18.535 2.81,39.031 21.344997,45.777 18.535,6.746 39.03,-2.81 45.776,-21.346 z"
       id="Stroke-1"
       stroke-width="7" /><path
       d="M 68.15,20.112 C 64.219,12.173 57.345,5.675 48.362,2.405"
       id="Stroke-2"
       stroke-width="6.3" /></g><g
     id="Group-6"
     transform="translate(28,16)"><mask
       id="mask-2-4"
       fill="#ffffff"><use
         xlink:href="#path-1-4"
         id="use3245"
         x="0"
         y="0"
         width="100%"
         height="100%" /></mask><g
       id="Clip-5" /><polygon
       id="Fill-4"
       fill="#009c49"
       mask="url(#mask-2-4)"
       points="-4.42323,-4.791003 -4.42323,70.953897 62.03502,70.953897 62.03502,-4.791003 " /></g><path
     d="M 69.098,16.844 44.876,28.139 C 30.769004,34.717 24.642004,51.549 31.219004,65.655 37.798004,79.762 54.63,85.89 68.736,79.31 82.844,72.731 88.97,55.9 82.392,41.793 L 70.459,16.209 Z"
     id="Stroke-7"
     stroke="#ffffff"
     stroke-width="5.25" /><g
     id="Group-10"
     transform="translate(46,15)"><mask
       id="mask-4-3"
       fill="#ffffff"><use
         xlink:href="#path-3-2"
         id="use3252"
         x="0"
         y="0"
         width="100%"
         height="100%" /></mask><g
       id="Clip-9" /><polygon
       id="Fill-8-9"
       fill="#009c49"
       mask="url(#mask-4-3)"
       points="-4.376,-4.374 -4.376,71.717 29.682,71.717 29.682,-4.374 " /></g><g
     id="Group-14"
     transform="translate(33,15)"
     stroke="#ffffff"
     stroke-width="5"><path
       d="M 37.682,0.626 13.624,66.717"
       id="Stroke-11" /><polyline
       id="Stroke-12"
       points="0.473 17.791 18.021 55.423 50.44 40.301" /><polyline
       id="Stroke-13"
       stroke-linejoin="round"
       points="17.701 12.254 26.705 31.562 45.539 22.776" /></g></g></svg>
